<svg width="397" height="222" viewBox="0 0 397 222" fill="none" xmlns="http://www.w3.org/2000/svg">
<path d="M32.456 207.32V206.324H34.712V215H33.608V207.32H32.456ZM42.811 206.636C43.723 206.636 44.511 206.808 45.175 207.152C45.847 207.488 46.359 207.972 46.711 208.604C47.071 209.236 47.251 209.98 47.251 210.836C47.251 211.692 47.071 212.436 46.711 213.068C46.359 213.692 45.847 214.172 45.175 214.508C44.511 214.836 43.723 215 42.811 215H40.207V206.636H42.811ZM42.811 214.1C43.891 214.1 44.715 213.816 45.283 213.248C45.851 212.672 46.135 211.868 46.135 210.836C46.135 209.796 45.847 208.984 45.271 208.4C44.703 207.816 43.883 207.524 42.811 207.524H41.299V214.1H42.811ZM54.8113 211.46C54.8113 211.668 54.7993 211.888 54.7753 212.12H49.5193C49.5593 212.768 49.7793 213.276 50.1793 213.644C50.5873 214.004 51.0793 214.184 51.6553 214.184C52.1273 214.184 52.5193 214.076 52.8313 213.86C53.1513 213.636 53.3753 213.34 53.5033 212.972H54.6793C54.5033 213.604 54.1513 214.12 53.6233 214.52C53.0953 214.912 52.4393 215.108 51.6553 215.108C51.0313 215.108 50.4713 214.968 49.9753 214.688C49.4873 214.408 49.1033 214.012 48.8233 213.5C48.5433 212.98 48.4033 212.38 48.4033 211.7C48.4033 211.02 48.5393 210.424 48.8113 209.912C49.0833 209.4 49.4633 209.008 49.9513 208.736C50.4473 208.456 51.0153 208.316 51.6553 208.316C52.2793 208.316 52.8313 208.452 53.3113 208.724C53.7913 208.996 54.1593 209.372 54.4153 209.852C54.6793 210.324 54.8113 210.86 54.8113 211.46ZM53.6833 211.232C53.6833 210.816 53.5913 210.46 53.4073 210.164C53.2233 209.86 52.9713 209.632 52.6513 209.48C52.3393 209.32 51.9913 209.24 51.6073 209.24C51.0553 209.24 50.5833 209.416 50.1913 209.768C49.8073 210.12 49.5873 210.608 49.5313 211.232H53.6833ZM55.9647 211.7C55.9647 211.02 56.1007 210.428 56.3727 209.924C56.6447 209.412 57.0207 209.016 57.5007 208.736C57.9887 208.456 58.5447 208.316 59.1687 208.316C59.9767 208.316 60.6407 208.512 61.1607 208.904C61.6888 209.296 62.0368 209.84 62.2047 210.536H61.0287C60.9167 210.136 60.6967 209.82 60.3687 209.588C60.0487 209.356 59.6487 209.24 59.1687 209.24C58.5447 209.24 58.0407 209.456 57.6567 209.888C57.2727 210.312 57.0807 210.916 57.0807 211.7C57.0807 212.492 57.2727 213.104 57.6567 213.536C58.0407 213.968 58.5447 214.184 59.1687 214.184C59.6487 214.184 60.0487 214.072 60.3687 213.848C60.6887 213.624 60.9087 213.304 61.0287 212.888H62.2047C62.0287 213.56 61.6767 214.1 61.1487 214.508C60.6207 214.908 59.9607 215.108 59.1687 215.108C58.5447 215.108 57.9887 214.968 57.5007 214.688C57.0207 214.408 56.6447 214.012 56.3727 213.5C56.1007 212.988 55.9647 212.388 55.9647 211.7Z" fill="#4C5862"/>
<path d="M0.744 184.572C0.744 183.196 0.968 182.124 1.416 181.356C1.864 180.58 2.648 180.192 3.768 180.192C4.88 180.192 5.66 180.58 6.108 181.356C6.556 182.124 6.78 183.196 6.78 184.572C6.78 185.972 6.556 187.06 6.108 187.836C5.66 188.612 4.88 189 3.768 189C2.648 189 1.864 188.612 1.416 187.836C0.968 187.06 0.744 185.972 0.744 184.572ZM5.7 184.572C5.7 183.876 5.652 183.288 5.556 182.808C5.468 182.32 5.28 181.928 4.992 181.632C4.712 181.336 4.304 181.188 3.768 181.188C3.224 181.188 2.808 181.336 2.52 181.632C2.24 181.928 2.052 182.32 1.956 182.808C1.868 183.288 1.824 183.876 1.824 184.572C1.824 185.292 1.868 185.896 1.956 186.384C2.052 186.872 2.24 187.264 2.52 187.56C2.808 187.856 3.224 188.004 3.768 188.004C4.304 188.004 4.712 187.856 4.992 187.56C5.28 187.264 5.468 186.872 5.556 186.384C5.652 185.896 5.7 185.292 5.7 184.572Z" fill="#4C5862"/>
<path d="M6.276 137.272H2.064V140.008C2.248 139.752 2.52 139.544 2.88 139.384C3.24 139.216 3.628 139.132 4.044 139.132C4.708 139.132 5.248 139.272 5.664 139.552C6.08 139.824 6.376 140.18 6.552 140.62C6.736 141.052 6.828 141.512 6.828 142C6.828 142.576 6.72 143.092 6.504 143.548C6.288 144.004 5.956 144.364 5.508 144.628C5.068 144.892 4.52 145.024 3.864 145.024C3.024 145.024 2.344 144.808 1.824 144.376C1.304 143.944 0.988 143.368 0.876 142.648H1.944C2.048 143.104 2.268 143.46 2.604 143.716C2.94 143.972 3.364 144.1 3.876 144.1C4.508 144.1 4.984 143.912 5.304 143.536C5.624 143.152 5.784 142.648 5.784 142.024C5.784 141.4 5.624 140.92 5.304 140.584C4.984 140.24 4.512 140.068 3.888 140.068C3.464 140.068 3.092 140.172 2.772 140.38C2.46 140.58 2.232 140.856 2.088 141.208H1.056V136.312H6.276V137.272ZM8.39916 140.572C8.39916 139.196 8.62316 138.124 9.07116 137.356C9.51916 136.58 10.3032 136.192 11.4232 136.192C12.5352 136.192 13.3152 136.58 13.7632 137.356C14.2112 138.124 14.4352 139.196 14.4352 140.572C14.4352 141.972 14.2112 143.06 13.7632 143.836C13.3152 144.612 12.5352 145 11.4232 145C10.3032 145 9.51916 144.612 9.07116 143.836C8.62316 143.06 8.39916 141.972 8.39916 140.572ZM13.3552 140.572C13.3552 139.876 13.3072 139.288 13.2112 138.808C13.1232 138.32 12.9352 137.928 12.6472 137.632C12.3672 137.336 11.9592 137.188 11.4232 137.188C10.8792 137.188 10.4632 137.336 10.1752 137.632C9.89516 137.928 9.70716 138.32 9.61116 138.808C9.52316 139.288 9.47916 139.876 9.47916 140.572C9.47916 141.292 9.52316 141.896 9.61116 142.384C9.70716 142.872 9.89516 143.264 10.1752 143.56C10.4632 143.856 10.8792 144.004 11.4232 144.004C11.9592 144.004 12.3672 143.856 12.6472 143.56C12.9352 143.264 13.1232 142.872 13.2112 142.384C13.3072 141.896 13.3552 141.292 13.3552 140.572Z" fill="#4C5862"/>
<path d="M0.456 93.32V92.324H2.712V101H1.608V93.32H0.456ZM4.70775 96.572C4.70775 95.196 4.93175 94.124 5.37975 93.356C5.82775 92.58 6.61175 92.192 7.73175 92.192C8.84375 92.192 9.62375 92.58 10.0717 93.356C10.5197 94.124 10.7437 95.196 10.7437 96.572C10.7437 97.972 10.5197 99.06 10.0717 99.836C9.62375 100.612 8.84375 101 7.73175 101C6.61175 101 5.82775 100.612 5.37975 99.836C4.93175 99.06 4.70775 97.972 4.70775 96.572ZM9.66375 96.572C9.66375 95.876 9.61575 95.288 9.51975 94.808C9.43175 94.32 9.24375 93.928 8.95575 93.632C8.67575 93.336 8.26775 93.188 7.73175 93.188C7.18775 93.188 6.77175 93.336 6.48375 93.632C6.20375 93.928 6.01575 94.32 5.91975 94.808C5.83175 95.288 5.78775 95.876 5.78775 96.572C5.78775 97.292 5.83175 97.896 5.91975 98.384C6.01575 98.872 6.20375 99.264 6.48375 99.56C6.77175 99.856 7.18775 100.004 7.73175 100.004C8.26775 100.004 8.67575 99.856 8.95575 99.56C9.24375 99.264 9.43175 98.872 9.51975 98.384C9.61575 97.896 9.66375 97.292 9.66375 96.572ZM12.3629 96.572C12.3629 95.196 12.5869 94.124 13.0349 93.356C13.4829 92.58 14.2669 92.192 15.3869 92.192C16.4989 92.192 17.2789 92.58 17.7269 93.356C18.1749 94.124 18.3989 95.196 18.3989 96.572C18.3989 97.972 18.1749 99.06 17.7269 99.836C17.2789 100.612 16.4989 101 15.3869 101C14.2669 101 13.4829 100.612 13.0349 99.836C12.5869 99.06 12.3629 97.972 12.3629 96.572ZM17.3189 96.572C17.3189 95.876 17.2709 95.288 17.1749 94.808C17.0869 94.32 16.8989 93.928 16.6109 93.632C16.3309 93.336 15.9229 93.188 15.3869 93.188C14.8429 93.188 14.4269 93.336 14.1389 93.632C13.8589 93.928 13.6709 94.32 13.5749 94.808C13.4869 95.288 13.4429 95.876 13.4429 96.572C13.4429 97.292 13.4869 97.896 13.5749 98.384C13.6709 98.872 13.8589 99.264 14.1389 99.56C14.4269 99.856 14.8429 100.004 15.3869 100.004C15.9229 100.004 16.3309 99.856 16.6109 99.56C16.8989 99.264 17.0869 98.872 17.1749 98.384C17.2709 97.896 17.3189 97.292 17.3189 96.572Z" fill="#4C5862"/>
<path d="M0.456 49.32V48.324H2.712V57H1.608V49.32H0.456ZM10.2397 49.272H6.02775V52.008C6.21175 51.752 6.48375 51.544 6.84375 51.384C7.20375 51.216 7.59175 51.132 8.00775 51.132C8.67175 51.132 9.21175 51.272 9.62775 51.552C10.0438 51.824 10.3398 52.18 10.5157 52.62C10.6997 53.052 10.7917 53.512 10.7917 54C10.7917 54.576 10.6838 55.092 10.4678 55.548C10.2518 56.004 9.91975 56.364 9.47175 56.628C9.03175 56.892 8.48375 57.024 7.82775 57.024C6.98775 57.024 6.30775 56.808 5.78775 56.376C5.26775 55.944 4.95175 55.368 4.83975 54.648H5.90775C6.01175 55.104 6.23175 55.46 6.56775 55.716C6.90375 55.972 7.32775 56.1 7.83975 56.1C8.47175 56.1 8.94775 55.912 9.26775 55.536C9.58775 55.152 9.74775 54.648 9.74775 54.024C9.74775 53.4 9.58775 52.92 9.26775 52.584C8.94775 52.24 8.47575 52.068 7.85175 52.068C7.42775 52.068 7.05575 52.172 6.73575 52.38C6.42375 52.58 6.19575 52.856 6.05175 53.208H5.01975V48.312H10.2397V49.272ZM12.3629 52.572C12.3629 51.196 12.5869 50.124 13.0349 49.356C13.4829 48.58 14.2669 48.192 15.3869 48.192C16.4989 48.192 17.2789 48.58 17.7269 49.356C18.1749 50.124 18.3989 51.196 18.3989 52.572C18.3989 53.972 18.1749 55.06 17.7269 55.836C17.2789 56.612 16.4989 57 15.3869 57C14.2669 57 13.4829 56.612 13.0349 55.836C12.5869 55.06 12.3629 53.972 12.3629 52.572ZM17.3189 52.572C17.3189 51.876 17.2709 51.288 17.1749 50.808C17.0869 50.32 16.8989 49.928 16.6109 49.632C16.3309 49.336 15.9229 49.188 15.3869 49.188C14.8429 49.188 14.4269 49.336 14.1389 49.632C13.8589 49.928 13.6709 50.32 13.5749 50.808C13.4869 51.288 13.4429 51.876 13.4429 52.572C13.4429 53.292 13.4869 53.896 13.5749 54.384C13.6709 54.872 13.8589 55.264 14.1389 55.56C14.4269 55.856 14.8429 56.004 15.3869 56.004C15.9229 56.004 16.3309 55.856 16.6109 55.56C16.8989 55.264 17.0869 54.872 17.1749 54.384C17.2709 53.896 17.3189 53.292 17.3189 52.572Z" fill="#4C5862"/>
<path d="M0.612 12.124C1.628 11.308 2.424 10.64 3 10.12C3.576 9.592 4.06 9.044 4.452 8.476C4.852 7.9 5.052 7.336 5.052 6.784C5.052 6.264 4.924 5.856 4.668 5.56C4.42 5.256 4.016 5.104 3.456 5.104C2.912 5.104 2.488 5.276 2.184 5.62C1.888 5.956 1.728 6.408 1.704 6.976H0.648C0.68 6.08 0.952 5.388 1.464 4.9C1.976 4.412 2.636 4.168 3.444 4.168C4.268 4.168 4.92 4.396 5.4 4.852C5.888 5.308 6.132 5.936 6.132 6.736C6.132 7.4 5.932 8.048 5.532 8.68C5.14 9.304 4.692 9.856 4.188 10.336C3.684 10.808 3.04 11.36 2.256 11.992H6.384V12.904H0.612V12.124ZM7.76634 8.572C7.76634 7.196 7.99034 6.124 8.43834 5.356C8.88634 4.58 9.67034 4.192 10.7903 4.192C11.9023 4.192 12.6823 4.58 13.1303 5.356C13.5783 6.124 13.8023 7.196 13.8023 8.572C13.8023 9.972 13.5783 11.06 13.1303 11.836C12.6823 12.612 11.9023 13 10.7903 13C9.67034 13 8.88634 12.612 8.43834 11.836C7.99034 11.06 7.76634 9.972 7.76634 8.572ZM12.7223 8.572C12.7223 7.876 12.6743 7.288 12.5783 6.808C12.4903 6.32 12.3023 5.928 12.0143 5.632C11.7343 5.336 11.3263 5.188 10.7903 5.188C10.2463 5.188 9.83034 5.336 9.54234 5.632C9.26234 5.928 9.07434 6.32 8.97834 6.808C8.89034 7.288 8.84634 7.876 8.84634 8.572C8.84634 9.292 8.89034 9.896 8.97834 10.384C9.07434 10.872 9.26234 11.264 9.54234 11.56C9.83034 11.856 10.2463 12.004 10.7903 12.004C11.3263 12.004 11.7343 11.856 12.0143 11.56C12.3023 11.264 12.4903 10.872 12.5783 10.384C12.6743 9.896 12.7223 9.292 12.7223 8.572ZM15.4215 8.572C15.4215 7.196 15.6455 6.124 16.0935 5.356C16.5415 4.58 17.3255 4.192 18.4455 4.192C19.5575 4.192 20.3375 4.58 20.7855 5.356C21.2335 6.124 21.4575 7.196 21.4575 8.572C21.4575 9.972 21.2335 11.06 20.7855 11.836C20.3375 12.612 19.5575 13 18.4455 13C17.3255 13 16.5415 12.612 16.0935 11.836C15.6455 11.06 15.4215 9.972 15.4215 8.572ZM20.3775 8.572C20.3775 7.876 20.3295 7.288 20.2335 6.808C20.1455 6.32 19.9575 5.928 19.6695 5.632C19.3895 5.336 18.9815 5.188 18.4455 5.188C17.9015 5.188 17.4855 5.336 17.1975 5.632C16.9175 5.928 16.7295 6.32 16.6335 6.808C16.5455 7.288 16.5015 7.876 16.5015 8.572C16.5015 9.292 16.5455 9.896 16.6335 10.384C16.7295 10.872 16.9175 11.264 17.1975 11.56C17.4855 11.856 17.9015 12.004 18.4455 12.004C18.9815 12.004 19.3895 11.856 19.6695 11.56C19.9575 11.264 20.1455 10.872 20.2335 10.384C20.3295 9.896 20.3775 9.292 20.3775 8.572Z" fill="#4C5862"/>
<path d="M357.72 208.508C357.776 207.772 358.06 207.196 358.572 206.78C359.084 206.364 359.748 206.156 360.564 206.156C361.108 206.156 361.576 206.256 361.968 206.456C362.368 206.648 362.668 206.912 362.868 207.248C363.076 207.584 363.18 207.964 363.18 208.388C363.18 208.884 363.036 209.312 362.748 209.672C362.468 210.032 362.1 210.264 361.644 210.368V210.428C362.164 210.556 362.576 210.808 362.88 211.184C363.184 211.56 363.336 212.052 363.336 212.66C363.336 213.116 363.232 213.528 363.024 213.896C362.816 214.256 362.504 214.54 362.088 214.748C361.672 214.956 361.172 215.06 360.588 215.06C359.74 215.06 359.044 214.84 358.5 214.4C357.956 213.952 357.652 213.32 357.588 212.504H358.644C358.7 212.984 358.896 213.376 359.232 213.68C359.568 213.984 360.016 214.136 360.576 214.136C361.136 214.136 361.56 213.992 361.848 213.704C362.144 213.408 362.292 213.028 362.292 212.564C362.292 211.964 362.092 211.532 361.692 211.268C361.292 211.004 360.688 210.872 359.88 210.872H359.604V209.96H359.892C360.628 209.952 361.184 209.832 361.56 209.6C361.936 209.36 362.124 208.992 362.124 208.496C362.124 208.072 361.984 207.732 361.704 207.476C361.432 207.22 361.04 207.092 360.528 207.092C360.032 207.092 359.632 207.22 359.328 207.476C359.024 207.732 358.844 208.076 358.788 208.508H357.72ZM364.642 207.32V206.324H366.898V215H365.794V207.32H364.642ZM374.997 206.636C375.909 206.636 376.697 206.808 377.361 207.152C378.033 207.488 378.545 207.972 378.897 208.604C379.257 209.236 379.437 209.98 379.437 210.836C379.437 211.692 379.257 212.436 378.897 213.068C378.545 213.692 378.033 214.172 377.361 214.508C376.697 214.836 375.909 215 374.997 215H372.393V206.636H374.997ZM374.997 214.1C376.077 214.1 376.901 213.816 377.469 213.248C378.037 212.672 378.321 211.868 378.321 210.836C378.321 209.796 378.033 208.984 377.457 208.4C376.889 207.816 376.069 207.524 374.997 207.524H373.485V214.1H374.997ZM386.998 211.46C386.998 211.668 386.986 211.888 386.962 212.12H381.706C381.746 212.768 381.966 213.276 382.366 213.644C382.774 214.004 383.266 214.184 383.842 214.184C384.314 214.184 384.706 214.076 385.018 213.86C385.338 213.636 385.562 213.34 385.69 212.972H386.866C386.69 213.604 386.338 214.12 385.81 214.52C385.282 214.912 384.626 215.108 383.842 215.108C383.218 215.108 382.658 214.968 382.162 214.688C381.674 214.408 381.29 214.012 381.01 213.5C380.73 212.98 380.59 212.38 380.59 211.7C380.59 211.02 380.726 210.424 380.998 209.912C381.27 209.4 381.65 209.008 382.138 208.736C382.634 208.456 383.202 208.316 383.842 208.316C384.466 208.316 385.018 208.452 385.498 208.724C385.978 208.996 386.346 209.372 386.602 209.852C386.866 210.324 386.998 210.86 386.998 211.46ZM385.87 211.232C385.87 210.816 385.778 210.46 385.594 210.164C385.41 209.86 385.158 209.632 384.838 209.48C384.526 209.32 384.178 209.24 383.794 209.24C383.242 209.24 382.77 209.416 382.378 209.768C381.994 210.12 381.774 210.608 381.718 211.232H385.87ZM388.151 211.7C388.151 211.02 388.287 210.428 388.559 209.924C388.831 209.412 389.207 209.016 389.687 208.736C390.175 208.456 390.731 208.316 391.355 208.316C392.163 208.316 392.827 208.512 393.347 208.904C393.875 209.296 394.223 209.84 394.391 210.536H393.215C393.103 210.136 392.883 209.82 392.555 209.588C392.235 209.356 391.835 209.24 391.355 209.24C390.731 209.24 390.227 209.456 389.843 209.888C389.459 210.312 389.267 210.916 389.267 211.7C389.267 212.492 389.459 213.104 389.843 213.536C390.227 213.968 390.731 214.184 391.355 214.184C391.835 214.184 392.235 214.072 392.555 213.848C392.875 213.624 393.095 213.304 393.215 212.888H394.391C394.215 213.56 393.863 214.1 393.335 214.508C392.807 214.908 392.147 215.108 391.355 215.108C390.731 215.108 390.175 214.968 389.687 214.688C389.207 214.408 388.831 214.012 388.559 213.5C388.287 212.988 388.151 212.388 388.151 211.7Z" fill="#4C5862"/>
<path d="M142.328 210.488C141.88 210.312 141.536 210.056 141.296 209.72C141.056 209.384 140.936 208.976 140.936 208.496C140.936 208.064 141.044 207.676 141.26 207.332C141.476 206.98 141.796 206.704 142.22 206.504C142.652 206.296 143.172 206.192 143.78 206.192C144.388 206.192 144.904 206.296 145.328 206.504C145.76 206.704 146.084 206.98 146.3 207.332C146.524 207.676 146.636 208.064 146.636 208.496C146.636 208.96 146.512 209.368 146.264 209.72C146.016 210.064 145.676 210.32 145.244 210.488C145.74 210.64 146.132 210.908 146.42 211.292C146.716 211.668 146.864 212.124 146.864 212.66C146.864 213.18 146.736 213.636 146.48 214.028C146.224 214.412 145.86 214.712 145.388 214.928C144.924 215.136 144.388 215.24 143.78 215.24C143.172 215.24 142.636 215.136 142.172 214.928C141.716 214.712 141.36 214.412 141.104 214.028C140.848 213.636 140.72 213.18 140.72 212.66C140.72 212.124 140.864 211.664 141.152 211.28C141.44 210.896 141.832 210.632 142.328 210.488ZM145.58 208.628C145.58 208.14 145.42 207.764 145.1 207.5C144.78 207.236 144.34 207.104 143.78 207.104C143.228 207.104 142.792 207.236 142.472 207.5C142.152 207.764 141.992 208.144 141.992 208.64C141.992 209.088 142.156 209.448 142.484 209.72C142.82 209.992 143.252 210.128 143.78 210.128C144.316 210.128 144.748 209.992 145.076 209.72C145.412 209.44 145.58 209.076 145.58 208.628ZM143.78 210.968C143.188 210.968 142.704 211.108 142.328 211.388C141.952 211.66 141.764 212.072 141.764 212.624C141.764 213.136 141.944 213.548 142.304 213.86C142.672 214.172 143.164 214.328 143.78 214.328C144.396 214.328 144.884 214.172 145.244 213.86C145.604 213.548 145.784 213.136 145.784 212.624C145.784 212.088 145.6 211.68 145.232 211.4C144.864 211.112 144.38 210.968 143.78 210.968ZM154.538 206.636C155.45 206.636 156.238 206.808 156.902 207.152C157.574 207.488 158.086 207.972 158.438 208.604C158.798 209.236 158.978 209.98 158.978 210.836C158.978 211.692 158.798 212.436 158.438 213.068C158.086 213.692 157.574 214.172 156.902 214.508C156.238 214.836 155.45 215 154.538 215H151.934V206.636H154.538ZM154.538 214.1C155.618 214.1 156.442 213.816 157.01 213.248C157.578 212.672 157.862 211.868 157.862 210.836C157.862 209.796 157.574 208.984 156.998 208.4C156.43 207.816 155.61 207.524 154.538 207.524H153.026V214.1H154.538ZM166.538 211.46C166.538 211.668 166.526 211.888 166.502 212.12H161.246C161.286 212.768 161.506 213.276 161.906 213.644C162.314 214.004 162.806 214.184 163.382 214.184C163.854 214.184 164.246 214.076 164.558 213.86C164.878 213.636 165.102 213.34 165.23 212.972H166.406C166.23 213.604 165.878 214.12 165.35 214.52C164.822 214.912 164.166 215.108 163.382 215.108C162.758 215.108 162.198 214.968 161.702 214.688C161.214 214.408 160.83 214.012 160.55 213.5C160.27 212.98 160.13 212.38 160.13 211.7C160.13 211.02 160.266 210.424 160.538 209.912C160.81 209.4 161.19 209.008 161.678 208.736C162.174 208.456 162.742 208.316 163.382 208.316C164.006 208.316 164.558 208.452 165.038 208.724C165.518 208.996 165.886 209.372 166.142 209.852C166.406 210.324 166.538 210.86 166.538 211.46ZM165.41 211.232C165.41 210.816 165.318 210.46 165.134 210.164C164.95 209.86 164.698 209.632 164.378 209.48C164.066 209.32 163.718 209.24 163.334 209.24C162.782 209.24 162.31 209.416 161.918 209.768C161.534 210.12 161.314 210.608 161.258 211.232H165.41ZM167.691 211.7C167.691 211.02 167.827 210.428 168.099 209.924C168.371 209.412 168.747 209.016 169.227 208.736C169.715 208.456 170.271 208.316 170.895 208.316C171.703 208.316 172.367 208.512 172.887 208.904C173.415 209.296 173.763 209.84 173.931 210.536H172.755C172.643 210.136 172.423 209.82 172.095 209.588C171.775 209.356 171.375 209.24 170.895 209.24C170.271 209.24 169.767 209.456 169.383 209.888C168.999 210.312 168.807 210.916 168.807 211.7C168.807 212.492 168.999 213.104 169.383 213.536C169.767 213.968 170.271 214.184 170.895 214.184C171.375 214.184 171.775 214.072 172.095 213.848C172.415 213.624 172.635 213.304 172.755 212.888H173.931C173.755 213.56 173.403 214.1 172.875 214.508C172.347 214.908 171.687 215.108 170.895 215.108C170.271 215.108 169.715 214.968 169.227 214.688C168.747 214.408 168.371 214.012 168.099 213.5C167.827 212.988 167.691 212.388 167.691 211.7Z" fill="#4C5862"/>
<path d="M249.456 207.32V206.324H251.712V215H250.608V207.32H249.456ZM258.544 208.388C258.368 207.5 257.82 207.056 256.9 207.056C256.188 207.056 255.656 207.332 255.304 207.884C254.952 208.428 254.78 209.328 254.788 210.584C254.972 210.168 255.276 209.844 255.7 209.612C256.132 209.372 256.612 209.252 257.14 209.252C257.964 209.252 258.62 209.508 259.108 210.02C259.604 210.532 259.852 211.24 259.852 212.144C259.852 212.688 259.744 213.176 259.528 213.608C259.32 214.04 259 214.384 258.568 214.64C258.144 214.896 257.628 215.024 257.02 215.024C256.196 215.024 255.552 214.84 255.088 214.472C254.624 214.104 254.3 213.596 254.116 212.948C253.932 212.3 253.84 211.5 253.84 210.548C253.84 207.612 254.864 206.144 256.912 206.144C257.696 206.144 258.312 206.356 258.76 206.78C259.208 207.204 259.472 207.74 259.552 208.388H258.544ZM256.912 210.176C256.568 210.176 256.244 210.248 255.94 210.392C255.636 210.528 255.388 210.74 255.196 211.028C255.012 211.308 254.92 211.652 254.92 212.06C254.92 212.668 255.096 213.164 255.448 213.548C255.8 213.924 256.304 214.112 256.96 214.112C257.52 214.112 257.964 213.94 258.292 213.596C258.628 213.244 258.796 212.772 258.796 212.18C258.796 211.556 258.636 211.068 258.316 210.716C257.996 210.356 257.528 210.176 256.912 210.176ZM267.548 206.636C268.46 206.636 269.248 206.808 269.912 207.152C270.584 207.488 271.096 207.972 271.448 208.604C271.808 209.236 271.988 209.98 271.988 210.836C271.988 211.692 271.808 212.436 271.448 213.068C271.096 213.692 270.584 214.172 269.912 214.508C269.248 214.836 268.46 215 267.548 215H264.944V206.636H267.548ZM267.548 214.1C268.628 214.1 269.452 213.816 270.02 213.248C270.588 212.672 270.872 211.868 270.872 210.836C270.872 209.796 270.584 208.984 270.008 208.4C269.44 207.816 268.62 207.524 267.548 207.524H266.036V214.1H267.548ZM279.549 211.46C279.549 211.668 279.537 211.888 279.513 212.12H274.257C274.297 212.768 274.517 213.276 274.917 213.644C275.325 214.004 275.817 214.184 276.393 214.184C276.865 214.184 277.257 214.076 277.569 213.86C277.889 213.636 278.113 213.34 278.241 212.972H279.417C279.241 213.604 278.889 214.12 278.361 214.52C277.833 214.912 277.177 215.108 276.393 215.108C275.769 215.108 275.209 214.968 274.713 214.688C274.225 214.408 273.841 214.012 273.561 213.5C273.281 212.98 273.141 212.38 273.141 211.7C273.141 211.02 273.277 210.424 273.549 209.912C273.821 209.4 274.201 209.008 274.689 208.736C275.185 208.456 275.753 208.316 276.393 208.316C277.017 208.316 277.569 208.452 278.049 208.724C278.529 208.996 278.897 209.372 279.153 209.852C279.417 210.324 279.549 210.86 279.549 211.46ZM278.421 211.232C278.421 210.816 278.329 210.46 278.145 210.164C277.961 209.86 277.709 209.632 277.389 209.48C277.077 209.32 276.729 209.24 276.345 209.24C275.793 209.24 275.321 209.416 274.929 209.768C274.545 210.12 274.325 210.608 274.269 211.232H278.421ZM280.702 211.7C280.702 211.02 280.838 210.428 281.11 209.924C281.382 209.412 281.758 209.016 282.238 208.736C282.726 208.456 283.282 208.316 283.906 208.316C284.714 208.316 285.378 208.512 285.898 208.904C286.426 209.296 286.774 209.84 286.942 210.536H285.766C285.654 210.136 285.434 209.82 285.106 209.588C284.786 209.356 284.386 209.24 283.906 209.24C283.282 209.24 282.778 209.456 282.394 209.888C282.01 210.312 281.818 210.916 281.818 211.7C281.818 212.492 282.01 213.104 282.394 213.536C282.778 213.968 283.282 214.184 283.906 214.184C284.386 214.184 284.786 214.072 285.106 213.848C285.426 213.624 285.646 213.304 285.766 212.888H286.942C286.766 213.56 286.414 214.1 285.886 214.508C285.358 214.908 284.698 215.108 283.906 215.108C283.282 215.108 282.726 214.968 282.238 214.688C281.758 214.408 281.382 214.012 281.11 213.5C280.838 212.988 280.702 212.388 280.702 211.7Z" fill="#4C5862"/>
<line x1="305" y1="10" x2="305" y2="185" stroke="#C2CFE0"/>
<line x1="32" y1="185.5" x2="397" y2="185.5" stroke="#D3D8DD" stroke-miterlimit="16" stroke-dasharray="8 8"/>
<line x1="32" y1="141.5" x2="397" y2="141.5" stroke="#D3D8DD" stroke-miterlimit="16" stroke-dasharray="8 8"/>
<line x1="32" y1="97.5" x2="397" y2="97.5" stroke="#D3D8DD" stroke-miterlimit="16" stroke-dasharray="8 8"/>
<line x1="32" y1="53.5" x2="397" y2="53.5" stroke="#D3D8DD" stroke-miterlimit="16" stroke-dasharray="8 8"/>
<line x1="32" y1="9.5" x2="397" y2="9.5" stroke="#D3D8DD" stroke-miterlimit="16" stroke-dasharray="8 8"/>
<mask id="mask0_1152_427" style="mask-type:alpha" maskUnits="userSpaceOnUse" x="32" y="10" width="365" height="176">
<rect x="32" y="10" width="365" height="176" fill="#C4C4C4"/>
</mask>
<g mask="url(#mask0_1152_427)">
<path opacity="0.2" d="M91.7189 98.988C62.1852 98.1182 34.1006 138.967 26.5 156V187H418.5L405 52.4999C375 59.9999 343 44.9999 333.852 44.6264C313.222 44.6264 282.458 87.3902 268.704 109.859C257.412 129.864 243.007 134.141 237.216 133.778C210.288 134.648 189.803 89.9272 182.926 67.4582C176.846 42.2344 170 37.0161 166.639 37.0161C161 36.9999 152.524 44.4092 143.837 69.6326C135.151 94.856 121.397 101.887 115.607 102.249C107.507 102.756 97.8718 98.9878 91.7189 98.988Z" fill="url(#paint0_linear_1152_427)"/>
<path d="M91.7189 98.988L91.6895 99.9875C91.6993 99.9878 91.7091 99.988 91.719 99.988L91.7189 98.988ZM115.607 102.249L115.544 101.251L115.607 102.249ZM166.639 37.0161L166.636 38.0161L166.639 38.0161L166.639 37.0161ZM182.926 67.4582L181.954 67.6925C181.959 67.7121 181.964 67.7316 181.97 67.7509L182.926 67.4582ZM237.216 133.778L237.278 132.78C237.247 132.778 237.215 132.778 237.184 132.779L237.216 133.778ZM268.704 109.859L267.851 109.337C267.845 109.347 267.839 109.358 267.833 109.368L268.704 109.859ZM333.852 44.6264L333.893 43.6272C333.879 43.6266 333.866 43.6264 333.852 43.6264V44.6264ZM27.4132 156.407C31.167 147.995 40.0243 133.62 51.6083 121.47C63.2281 109.283 77.3701 99.5658 91.6895 99.9875L91.7484 97.9884C76.534 97.5403 61.8669 107.812 50.1608 120.09C38.4189 132.406 29.4336 146.972 25.5868 155.592L27.4132 156.407ZM91.719 99.988C94.6616 99.9879 98.4664 100.894 102.727 101.787C106.911 102.665 111.467 103.51 115.669 103.247L115.544 101.251C111.646 101.495 107.335 100.71 103.138 99.8299C99.0182 98.966 94.9291 97.9879 91.7189 97.988L91.719 99.988ZM115.669 103.247C122.019 102.85 136.024 95.3906 144.783 69.9582L142.892 69.307C134.277 94.3215 120.776 100.924 115.544 101.251L115.669 103.247ZM144.783 69.9582C149.108 57.3989 153.355 49.3562 157.169 44.4752C161 39.5722 164.27 38.0093 166.636 38.0161L166.642 36.0161C163.369 36.0067 159.581 38.1403 155.593 43.2438C151.588 48.3693 147.253 56.643 142.892 69.307L144.783 69.9582ZM166.639 38.0161C167.804 38.0161 170.094 38.9594 172.924 43.3224C175.728 47.6453 178.926 55.1328 181.954 67.6925L183.898 67.2239C180.845 54.5598 177.581 46.8262 174.602 42.234C171.649 37.682 168.835 36.0161 166.639 36.0161L166.639 38.0161ZM181.97 67.7509C185.428 79.0504 192.305 95.9447 201.722 109.929C206.431 116.921 211.802 123.227 217.735 127.738C223.672 132.252 230.221 135.005 237.248 134.778L237.184 132.779C230.748 132.987 224.638 130.475 218.945 126.146C213.248 121.814 208.019 115.699 203.381 108.812C194.104 95.0356 187.301 78.3351 183.882 67.1655L181.97 67.7509ZM237.154 134.776C243.408 135.168 258.138 130.613 269.575 110.351L267.833 109.368C256.686 129.116 242.606 133.113 237.278 132.78L237.154 134.776ZM269.557 110.381C276.415 99.1778 287.51 82.9222 299.447 69.481C305.417 62.7589 311.572 56.7695 317.491 52.4683C323.436 48.1487 329.013 45.6264 333.852 45.6264V43.6264C328.376 43.6264 322.372 46.4495 316.316 50.8503C310.234 55.2695 303.971 61.3753 297.952 68.1529C285.911 81.7109 274.747 98.0718 267.851 109.337L269.557 110.381ZM333.811 45.6255C335.951 45.7129 339.528 46.6742 344.338 48.0313C349.085 49.3707 354.91 51.055 361.39 52.492C374.341 55.364 390.021 57.2755 405.243 53.47L404.757 51.5297C389.979 55.2243 374.659 53.3858 361.823 50.5394C355.41 49.1172 349.644 47.4502 344.881 46.1064C340.181 44.7803 336.327 43.7266 333.893 43.6272L333.811 45.6255Z" fill="#109CF1"/>
<circle cx="305" cy="62" r="4" fill="white" stroke="#109CF1" stroke-width="2"/>
</g>
<rect opacity="0.6" x="318" y="50" width="46" height="24" rx="12" fill="#192A3E"/>
<path d="M332.317 59.125V57.981H334.605V66H333.34V59.125H332.317ZM336.284 64.328V63.382L339.98 58.08H341.498V63.239H342.521V64.328H341.498V66H340.266V64.328H336.284ZM340.321 59.356L337.725 63.239H340.321V59.356ZM347.982 59.84C347.901 59.5027 347.755 59.2497 347.542 59.081C347.329 58.9123 347.032 58.828 346.651 58.828C346.072 58.828 345.639 59.0517 345.353 59.499C345.067 59.939 344.917 60.6723 344.902 61.699C345.093 61.3763 345.371 61.127 345.738 60.951C346.105 60.775 346.501 60.687 346.926 60.687C347.41 60.687 347.835 60.7933 348.202 61.006C348.576 61.2113 348.866 61.512 349.071 61.908C349.284 62.304 349.39 62.777 349.39 63.327C349.39 63.8403 349.287 64.2987 349.082 64.702C348.884 65.1053 348.587 65.4243 348.191 65.659C347.795 65.8863 347.318 66 346.761 66C346.006 66 345.412 65.835 344.979 65.505C344.554 65.1677 344.253 64.6947 344.077 64.086C343.908 63.4773 343.824 62.7183 343.824 61.809C343.824 59.125 344.77 57.783 346.662 57.783C347.395 57.783 347.971 57.981 348.389 58.377C348.814 58.773 349.064 59.2607 349.137 59.84H347.982ZM346.651 61.743C346.204 61.743 345.822 61.8787 345.507 62.15C345.199 62.414 345.045 62.799 345.045 63.305C345.045 63.811 345.188 64.2143 345.474 64.515C345.767 64.8083 346.174 64.955 346.695 64.955C347.157 64.955 347.52 64.812 347.784 64.526C348.055 64.24 348.191 63.8587 348.191 63.382C348.191 62.8833 348.059 62.4873 347.795 62.194C347.538 61.8933 347.157 61.743 346.651 61.743Z" fill="white"/>
<defs>
<linearGradient id="paint0_linear_1152_427" x1="222.5" y1="37.0161" x2="222" y2="187" gradientUnits="userSpaceOnUse">
<stop stop-color="#109CF1"/>
<stop offset="1" stop-color="#109CF1" stop-opacity="0"/>
</linearGradient>
</defs>
</svg>
