<svg width="358" height="240" viewBox="0 0 358 240" fill="none" xmlns="http://www.w3.org/2000/svg">
<g filter="url(#filter0_d_28028_231)">
<path d="M300.89 89.45H297.85L297.29 91H296.33L298.85 84.07H299.9L302.41 91H301.45L300.89 89.45ZM300.63 88.71L299.37 85.19L298.11 88.71H300.63ZM303.268 88.25C303.268 87.6833 303.382 87.19 303.608 86.77C303.835 86.3433 304.148 86.0133 304.548 85.78C304.955 85.5467 305.418 85.43 305.938 85.43C306.612 85.43 307.165 85.5933 307.598 85.92C308.038 86.2467 308.328 86.7 308.468 87.28H307.488C307.395 86.9467 307.212 86.6833 306.938 86.49C306.672 86.2967 306.338 86.2 305.938 86.2C305.418 86.2 304.998 86.38 304.678 86.74C304.358 87.0933 304.198 87.5967 304.198 88.25C304.198 88.91 304.358 89.42 304.678 89.78C304.998 90.14 305.418 90.32 305.938 90.32C306.338 90.32 306.672 90.2267 306.938 90.04C307.205 89.8533 307.388 89.5867 307.488 89.24H308.468C308.322 89.8 308.028 90.25 307.588 90.59C307.148 90.9233 306.598 91.09 305.938 91.09C305.418 91.09 304.955 90.9733 304.548 90.74C304.148 90.5067 303.835 90.1767 303.608 89.75C303.382 89.3233 303.268 88.8233 303.268 88.25ZM310.892 86.27V89.5C310.892 89.7667 310.949 89.9567 311.062 90.07C311.176 90.1767 311.372 90.23 311.652 90.23H312.323V91H311.502C310.996 91 310.616 90.8833 310.362 90.65C310.109 90.4167 309.982 90.0333 309.982 89.5V86.27H309.272V85.52H309.982V84.14H310.892V85.52H312.323V86.27H310.892ZM313.995 84.63C313.822 84.63 313.675 84.57 313.555 84.45C313.435 84.33 313.375 84.1833 313.375 84.01C313.375 83.8367 313.435 83.69 313.555 83.57C313.675 83.45 313.822 83.39 313.995 83.39C314.162 83.39 314.302 83.45 314.415 83.57C314.535 83.69 314.595 83.8367 314.595 84.01C314.595 84.1833 314.535 84.33 314.415 84.45C314.302 84.57 314.162 84.63 313.995 84.63ZM314.435 85.52V91H313.525V85.52H314.435ZM318.126 90.16L319.826 85.52H320.796L318.646 91H317.586L315.436 85.52H316.416L318.126 90.16ZM326.791 88.05C326.791 88.2233 326.781 88.4067 326.761 88.6H322.381C322.415 89.14 322.598 89.5633 322.931 89.87C323.271 90.17 323.681 90.32 324.161 90.32C324.555 90.32 324.881 90.23 325.141 90.05C325.408 89.8633 325.595 89.6167 325.701 89.31H326.681C326.535 89.8367 326.241 90.2667 325.801 90.6C325.361 90.9267 324.815 91.09 324.161 91.09C323.641 91.09 323.175 90.9733 322.761 90.74C322.355 90.5067 322.035 90.1767 321.801 89.75C321.568 89.3167 321.451 88.8167 321.451 88.25C321.451 87.6833 321.565 87.1867 321.791 86.76C322.018 86.3333 322.335 86.0067 322.741 85.78C323.155 85.5467 323.628 85.43 324.161 85.43C324.681 85.43 325.141 85.5433 325.541 85.77C325.941 85.9967 326.248 86.31 326.461 86.71C326.681 87.1033 326.791 87.55 326.791 88.05ZM325.851 87.86C325.851 87.5133 325.775 87.2167 325.621 86.97C325.468 86.7167 325.258 86.5267 324.991 86.4C324.731 86.2667 324.441 86.2 324.121 86.2C323.661 86.2 323.268 86.3467 322.941 86.64C322.621 86.9333 322.438 87.34 322.391 87.86H325.851Z" fill="#192A3E"/>
<circle cx="284" cy="88" r="3" stroke="#FFB946" stroke-width="2"/>
<path d="M296.43 115.51C296.43 114.83 296.583 114.22 296.89 113.68C297.197 113.133 297.613 112.707 298.14 112.4C298.673 112.093 299.263 111.94 299.91 111.94C300.67 111.94 301.333 112.123 301.9 112.49C302.467 112.857 302.88 113.377 303.14 114.05H302.05C301.857 113.63 301.577 113.307 301.21 113.08C300.85 112.853 300.417 112.74 299.91 112.74C299.423 112.74 298.987 112.853 298.6 113.08C298.213 113.307 297.91 113.63 297.69 114.05C297.47 114.463 297.36 114.95 297.36 115.51C297.36 116.063 297.47 116.55 297.69 116.97C297.91 117.383 298.213 117.703 298.6 117.93C298.987 118.157 299.423 118.27 299.91 118.27C300.417 118.27 300.85 118.16 301.21 117.94C301.577 117.713 301.857 117.39 302.05 116.97H303.14C302.88 117.637 302.467 118.153 301.9 118.52C301.333 118.88 300.67 119.06 299.91 119.06C299.263 119.06 298.673 118.91 298.14 118.61C297.613 118.303 297.197 117.88 296.89 117.34C296.583 116.8 296.43 116.19 296.43 115.51ZM306.985 119.09C306.471 119.09 306.005 118.973 305.585 118.74C305.171 118.507 304.845 118.177 304.605 117.75C304.371 117.317 304.255 116.817 304.255 116.25C304.255 115.69 304.375 115.197 304.615 114.77C304.861 114.337 305.195 114.007 305.615 113.78C306.035 113.547 306.505 113.43 307.025 113.43C307.545 113.43 308.015 113.547 308.435 113.78C308.855 114.007 309.185 114.333 309.425 114.76C309.671 115.187 309.795 115.683 309.795 116.25C309.795 116.817 309.668 117.317 309.415 117.75C309.168 118.177 308.831 118.507 308.405 118.74C307.978 118.973 307.505 119.09 306.985 119.09ZM306.985 118.29C307.311 118.29 307.618 118.213 307.905 118.06C308.191 117.907 308.421 117.677 308.595 117.37C308.775 117.063 308.865 116.69 308.865 116.25C308.865 115.81 308.778 115.437 308.605 115.13C308.431 114.823 308.205 114.597 307.925 114.45C307.645 114.297 307.341 114.22 307.015 114.22C306.681 114.22 306.375 114.297 306.095 114.45C305.821 114.597 305.601 114.823 305.435 115.13C305.268 115.437 305.185 115.81 305.185 116.25C305.185 116.697 305.265 117.073 305.425 117.38C305.591 117.687 305.811 117.917 306.085 118.07C306.358 118.217 306.658 118.29 306.985 118.29ZM317.681 113.42C318.108 113.42 318.488 113.51 318.821 113.69C319.154 113.863 319.418 114.127 319.611 114.48C319.804 114.833 319.901 115.263 319.901 115.77V119H319.001V115.9C319.001 115.353 318.864 114.937 318.591 114.65C318.324 114.357 317.961 114.21 317.501 114.21C317.028 114.21 316.651 114.363 316.371 114.67C316.091 114.97 315.951 115.407 315.951 115.98V119H315.051V115.9C315.051 115.353 314.914 114.937 314.641 114.65C314.374 114.357 314.011 114.21 313.551 114.21C313.078 114.21 312.701 114.363 312.421 114.67C312.141 114.97 312.001 115.407 312.001 115.98V119H311.091V113.52H312.001V114.31C312.181 114.023 312.421 113.803 312.721 113.65C313.028 113.497 313.364 113.42 313.731 113.42C314.191 113.42 314.598 113.523 314.951 113.73C315.304 113.937 315.568 114.24 315.741 114.64C315.894 114.253 316.148 113.953 316.501 113.74C316.854 113.527 317.248 113.42 317.681 113.42ZM322.404 114.53C322.584 114.217 322.85 113.957 323.204 113.75C323.564 113.537 323.98 113.43 324.454 113.43C324.94 113.43 325.38 113.547 325.774 113.78C326.174 114.013 326.487 114.343 326.714 114.77C326.94 115.19 327.054 115.68 327.054 116.24C327.054 116.793 326.94 117.287 326.714 117.72C326.487 118.153 326.174 118.49 325.774 118.73C325.38 118.97 324.94 119.09 324.454 119.09C323.987 119.09 323.574 118.987 323.214 118.78C322.86 118.567 322.59 118.303 322.404 117.99V121.6H321.494V113.52H322.404V114.53ZM326.124 116.24C326.124 115.827 326.04 115.467 325.874 115.16C325.707 114.853 325.48 114.62 325.194 114.46C324.914 114.3 324.604 114.22 324.264 114.22C323.93 114.22 323.62 114.303 323.334 114.47C323.054 114.63 322.827 114.867 322.654 115.18C322.487 115.487 322.404 115.843 322.404 116.25C322.404 116.663 322.487 117.027 322.654 117.34C322.827 117.647 323.054 117.883 323.334 118.05C323.62 118.21 323.93 118.29 324.264 118.29C324.604 118.29 324.914 118.21 325.194 118.05C325.48 117.883 325.707 117.647 325.874 117.34C326.04 117.027 326.124 116.66 326.124 116.24ZM329.262 111.6V119H328.352V111.6H329.262ZM335.913 116.05C335.913 116.223 335.903 116.407 335.883 116.6H331.503C331.536 117.14 331.719 117.563 332.053 117.87C332.393 118.17 332.803 118.32 333.283 118.32C333.676 118.32 334.003 118.23 334.263 118.05C334.529 117.863 334.716 117.617 334.823 117.31H335.803C335.656 117.837 335.363 118.267 334.923 118.6C334.483 118.927 333.936 119.09 333.283 119.09C332.763 119.09 332.296 118.973 331.883 118.74C331.476 118.507 331.156 118.177 330.923 117.75C330.689 117.317 330.573 116.817 330.573 116.25C330.573 115.683 330.686 115.187 330.913 114.76C331.139 114.333 331.456 114.007 331.863 113.78C332.276 113.547 332.749 113.43 333.283 113.43C333.803 113.43 334.263 113.543 334.663 113.77C335.063 113.997 335.369 114.31 335.583 114.71C335.803 115.103 335.913 115.55 335.913 116.05ZM334.973 115.86C334.973 115.513 334.896 115.217 334.743 114.97C334.589 114.717 334.379 114.527 334.113 114.4C333.853 114.267 333.563 114.2 333.243 114.2C332.783 114.2 332.389 114.347 332.063 114.64C331.743 114.933 331.559 115.34 331.513 115.86H334.973ZM338.324 114.27V117.5C338.324 117.767 338.38 117.957 338.494 118.07C338.607 118.177 338.804 118.23 339.084 118.23H339.754V119H338.934C338.427 119 338.047 118.883 337.794 118.65C337.54 118.417 337.414 118.033 337.414 117.5V114.27H336.704V113.52H337.414V112.14H338.324V113.52H339.754V114.27H338.324ZM345.956 116.05C345.956 116.223 345.946 116.407 345.926 116.6H341.546C341.58 117.14 341.763 117.563 342.096 117.87C342.436 118.17 342.846 118.32 343.326 118.32C343.72 118.32 344.046 118.23 344.306 118.05C344.573 117.863 344.76 117.617 344.866 117.31H345.846C345.7 117.837 345.406 118.267 344.966 118.6C344.526 118.927 343.98 119.09 343.326 119.09C342.806 119.09 342.34 118.973 341.926 118.74C341.52 118.507 341.2 118.177 340.966 117.75C340.733 117.317 340.616 116.817 340.616 116.25C340.616 115.683 340.73 115.187 340.956 114.76C341.183 114.333 341.5 114.007 341.906 113.78C342.32 113.547 342.793 113.43 343.326 113.43C343.846 113.43 344.306 113.543 344.706 113.77C345.106 113.997 345.413 114.31 345.626 114.71C345.846 115.103 345.956 115.55 345.956 116.05ZM345.016 115.86C345.016 115.513 344.94 115.217 344.786 114.97C344.633 114.717 344.423 114.527 344.156 114.4C343.896 114.267 343.606 114.2 343.286 114.2C342.826 114.2 342.433 114.347 342.106 114.64C341.786 114.933 341.603 115.34 341.556 115.86H345.016ZM346.917 116.24C346.917 115.68 347.031 115.19 347.257 114.77C347.484 114.343 347.794 114.013 348.187 113.78C348.587 113.547 349.034 113.43 349.527 113.43C349.954 113.43 350.351 113.53 350.717 113.73C351.084 113.923 351.364 114.18 351.557 114.5V111.6H352.477V119H351.557V117.97C351.377 118.297 351.111 118.567 350.757 118.78C350.404 118.987 349.991 119.09 349.517 119.09C349.031 119.09 348.587 118.97 348.187 118.73C347.794 118.49 347.484 118.153 347.257 117.72C347.031 117.287 346.917 116.793 346.917 116.24ZM351.557 116.25C351.557 115.837 351.474 115.477 351.307 115.17C351.141 114.863 350.914 114.63 350.627 114.47C350.347 114.303 350.037 114.22 349.697 114.22C349.357 114.22 349.047 114.3 348.767 114.46C348.487 114.62 348.264 114.853 348.097 115.16C347.931 115.467 347.847 115.827 347.847 116.24C347.847 116.66 347.931 117.027 348.097 117.34C348.264 117.647 348.487 117.883 348.767 118.05C349.047 118.21 349.357 118.29 349.697 118.29C350.037 118.29 350.347 118.21 350.627 118.05C350.914 117.883 351.141 117.647 351.307 117.34C351.474 117.027 351.557 116.663 351.557 116.25Z" fill="#192A3E"/>
<circle cx="284" cy="116" r="3" stroke="#2ED47A" stroke-width="2"/>
<path d="M297.68 140.77V143.1H300.22V143.85H297.68V146.25H300.52V147H296.77V140.02H300.52V140.77H297.68ZM304.667 141.42C305.334 141.42 305.874 141.623 306.287 142.03C306.7 142.43 306.907 143.01 306.907 143.77V147H306.007V143.9C306.007 143.353 305.87 142.937 305.597 142.65C305.324 142.357 304.95 142.21 304.477 142.21C303.997 142.21 303.614 142.36 303.327 142.66C303.047 142.96 302.907 143.397 302.907 143.97V147H301.997V141.52H302.907V142.3C303.087 142.02 303.33 141.803 303.637 141.65C303.95 141.497 304.294 141.42 304.667 141.42ZM308.153 144.24C308.153 143.68 308.267 143.19 308.493 142.77C308.72 142.343 309.03 142.013 309.423 141.78C309.823 141.547 310.27 141.43 310.763 141.43C311.19 141.43 311.587 141.53 311.953 141.73C312.32 141.923 312.6 142.18 312.793 142.5V139.6H313.713V147H312.793V145.97C312.613 146.297 312.347 146.567 311.993 146.78C311.64 146.987 311.227 147.09 310.753 147.09C310.267 147.09 309.823 146.97 309.423 146.73C309.03 146.49 308.72 146.153 308.493 145.72C308.267 145.287 308.153 144.793 308.153 144.24ZM312.793 144.25C312.793 143.837 312.71 143.477 312.543 143.17C312.377 142.863 312.15 142.63 311.863 142.47C311.583 142.303 311.273 142.22 310.933 142.22C310.593 142.22 310.283 142.3 310.003 142.46C309.723 142.62 309.5 142.853 309.333 143.16C309.167 143.467 309.083 143.827 309.083 144.24C309.083 144.66 309.167 145.027 309.333 145.34C309.5 145.647 309.723 145.883 310.003 146.05C310.283 146.21 310.593 146.29 310.933 146.29C311.273 146.29 311.583 146.21 311.863 146.05C312.15 145.883 312.377 145.647 312.543 145.34C312.71 145.027 312.793 144.663 312.793 144.25ZM320.351 144.05C320.351 144.223 320.341 144.407 320.321 144.6H315.941C315.975 145.14 316.158 145.563 316.491 145.87C316.831 146.17 317.241 146.32 317.721 146.32C318.115 146.32 318.441 146.23 318.701 146.05C318.968 145.863 319.155 145.617 319.261 145.31H320.241C320.095 145.837 319.801 146.267 319.361 146.6C318.921 146.927 318.375 147.09 317.721 147.09C317.201 147.09 316.735 146.973 316.321 146.74C315.915 146.507 315.595 146.177 315.361 145.75C315.128 145.317 315.011 144.817 315.011 144.25C315.011 143.683 315.125 143.187 315.351 142.76C315.578 142.333 315.895 142.007 316.301 141.78C316.715 141.547 317.188 141.43 317.721 141.43C318.241 141.43 318.701 141.543 319.101 141.77C319.501 141.997 319.808 142.31 320.021 142.71C320.241 143.103 320.351 143.55 320.351 144.05ZM319.411 143.86C319.411 143.513 319.335 143.217 319.181 142.97C319.028 142.717 318.818 142.527 318.551 142.4C318.291 142.267 318.001 142.2 317.681 142.2C317.221 142.2 316.828 142.347 316.501 142.64C316.181 142.933 315.998 143.34 315.951 143.86H319.411ZM321.312 144.24C321.312 143.68 321.426 143.19 321.652 142.77C321.879 142.343 322.189 142.013 322.582 141.78C322.982 141.547 323.429 141.43 323.922 141.43C324.349 141.43 324.746 141.53 325.112 141.73C325.479 141.923 325.759 142.18 325.952 142.5V139.6H326.872V147H325.952V145.97C325.772 146.297 325.506 146.567 325.152 146.78C324.799 146.987 324.386 147.09 323.912 147.09C323.426 147.09 322.982 146.97 322.582 146.73C322.189 146.49 321.879 146.153 321.652 145.72C321.426 145.287 321.312 144.793 321.312 144.24ZM325.952 144.25C325.952 143.837 325.869 143.477 325.702 143.17C325.536 142.863 325.309 142.63 325.022 142.47C324.742 142.303 324.432 142.22 324.092 142.22C323.752 142.22 323.442 142.3 323.162 142.46C322.882 142.62 322.659 142.853 322.492 143.16C322.326 143.467 322.242 143.827 322.242 144.24C322.242 144.66 322.326 145.027 322.492 145.34C322.659 145.647 322.882 145.883 323.162 146.05C323.442 146.21 323.752 146.29 324.092 146.29C324.432 146.29 324.742 146.21 325.022 146.05C325.309 145.883 325.536 145.647 325.702 145.34C325.869 145.027 325.952 144.663 325.952 144.25Z" fill="#192A3E"/>
<circle cx="284" cy="144" r="3" stroke="#F7685B" stroke-width="2"/>
<circle cx="120" cy="116" r="112" stroke="#FFB946" stroke-width="8"/>
<path d="M87.1792 102.64C86.7685 100.923 86.0219 99.6347 84.9392 98.776C83.8565 97.9173 82.3445 97.488 80.4032 97.488C77.4539 97.488 75.2512 98.6267 73.7952 100.904C72.3392 103.144 71.5739 106.877 71.4992 112.104C72.4699 110.461 73.8885 109.192 75.7552 108.296C77.6219 107.4 79.6379 106.952 81.8032 106.952C84.2672 106.952 86.4325 107.493 88.2992 108.576C90.2032 109.621 91.6779 111.152 92.7232 113.168C93.8059 115.184 94.3472 117.592 94.3472 120.392C94.3472 123.005 93.8245 125.339 92.7792 127.392C91.7712 129.445 90.2592 131.069 88.2432 132.264C86.2272 133.421 83.8005 134 80.9632 134C77.1179 134 74.0939 133.16 71.8912 131.48C69.7259 129.763 68.1952 127.355 67.2992 124.256C66.4405 121.157 66.0112 117.293 66.0112 112.664C66.0112 99 70.8272 92.168 80.4592 92.168C84.1925 92.168 87.1232 93.176 89.2512 95.192C91.4165 97.208 92.6859 99.6907 93.0592 102.64H87.1792ZM80.4032 112.328C78.1259 112.328 76.1845 113.019 74.5792 114.4C73.0112 115.744 72.2272 117.704 72.2272 120.28C72.2272 122.856 72.9552 124.909 74.4112 126.44C75.9045 127.933 77.9765 128.68 80.6272 128.68C82.9792 128.68 84.8272 127.952 86.1712 126.496C87.5525 125.04 88.2432 123.099 88.2432 120.672C88.2432 118.133 87.5712 116.117 86.2272 114.624C84.9205 113.093 82.9792 112.328 80.4032 112.328ZM101.157 113.056C101.157 106.597 102.24 101.557 104.405 97.936C106.608 94.2773 110.378 92.448 115.717 92.448C121.056 92.448 124.808 94.2773 126.973 97.936C129.176 101.557 130.277 106.597 130.277 113.056C130.277 119.589 129.176 124.704 126.973 128.4C124.808 132.059 121.056 133.888 115.717 133.888C110.378 133.888 106.608 132.059 104.405 128.4C102.24 124.704 101.157 119.589 101.157 113.056ZM124.005 113.056C124.005 110.032 123.8 107.475 123.389 105.384C123.016 103.293 122.232 101.595 121.037 100.288C119.842 98.944 118.069 98.272 115.717 98.272C113.365 98.272 111.592 98.944 110.397 100.288C109.202 101.595 108.4 103.293 107.989 105.384C107.616 107.475 107.429 110.032 107.429 113.056C107.429 116.192 107.616 118.824 107.989 120.952C108.362 123.08 109.146 124.797 110.341 126.104C111.573 127.411 113.365 128.064 115.717 128.064C118.069 128.064 119.842 127.411 121.037 126.104C122.269 124.797 123.072 123.08 123.445 120.952C123.818 118.824 124.005 116.192 124.005 113.056ZM136.024 103.032C136.024 100.307 136.808 98.1787 138.376 96.648C139.981 95.08 142.035 94.296 144.536 94.296C147.037 94.296 149.072 95.08 150.64 96.648C152.245 98.1787 153.048 100.307 153.048 103.032C153.048 105.757 152.245 107.904 150.64 109.472C149.072 111.04 147.037 111.824 144.536 111.824C142.035 111.824 139.981 111.04 138.376 109.472C136.808 107.904 136.024 105.757 136.024 103.032ZM170.184 95.024L147.84 134H141.568L163.912 95.024H170.184ZM144.536 98.16C142.184 98.16 141.008 99.784 141.008 103.032C141.008 106.317 142.184 107.96 144.536 107.96C145.656 107.96 146.515 107.568 147.112 106.784C147.747 105.963 148.064 104.712 148.064 103.032C148.064 99.784 146.888 98.16 144.536 98.16ZM158.816 125.936C158.816 123.211 159.6 121.083 161.168 119.552C162.773 117.984 164.827 117.2 167.328 117.2C169.792 117.2 171.808 117.984 173.376 119.552C174.981 121.083 175.784 123.211 175.784 125.936C175.784 128.661 174.981 130.808 173.376 132.376C171.808 133.944 169.792 134.728 167.328 134.728C164.827 134.728 162.773 133.944 161.168 132.376C159.6 130.808 158.816 128.661 158.816 125.936ZM167.272 121.064C164.92 121.064 163.744 122.688 163.744 125.936C163.744 129.184 164.92 130.808 167.272 130.808C169.624 130.808 170.8 129.184 170.8 125.936C170.8 122.688 169.624 121.064 167.272 121.064Z" fill="#2ED47A"/>
<path d="M232 116C232 95.3333 226.282 75.0695 215.478 57.4514C204.674 39.8334 189.207 25.5481 170.787 16.1767C152.367 6.80528 131.713 2.71318 111.112 4.35329C90.5101 5.99341 70.764 13.3018 54.0589 25.4695C37.3538 37.6373 24.3411 54.1899 16.461 73.2954C8.58097 92.4009 6.14085 113.314 9.41074 133.721C12.6806 154.127 21.533 173.231 34.9881 188.918C48.4432 204.604 65.9763 216.262 85.6469 222.601" stroke="#F7685B" stroke-width="8" stroke-linecap="round"/>
<path d="M232 116C232 98.3253 227.817 80.9014 219.793 65.1531C211.769 49.4047 200.131 35.7791 185.832 25.3901C171.533 15.0011 154.978 8.14386 137.521 5.37892C120.064 2.61398 102.2 4.01988 85.3901 9.48169C68.5804 14.9435 53.302 24.3061 40.804 36.8041C28.3061 49.302 18.9435 64.5804 13.4817 81.3901C8.01988 98.1998 6.61398 116.064 9.37892 133.521C12.1439 150.978 19.0012 167.533 29.3901 181.832" stroke="#2ED47A" stroke-width="8" stroke-linecap="round" stroke-linejoin="round"/>
</g>
<defs>
<filter id="filter0_d_28028_231" x="-6.10352e-05" y="0" width="358" height="240" filterUnits="userSpaceOnUse" color-interpolation-filters="sRGB">
<feFlood flood-opacity="0" result="BackgroundImageFix"/>
<feOffset dy="4"/>
<feGaussianBlur stdDeviation="2"/>
<feComposite in2="hardAlpha" operator="out"/>
<feColorMatrix type="matrix" values="0 0 0 0 0 0 0 0 0 0 0 0 0 0 0 0 0 0 0.25 0"/>
<feBlend mode="normal" in2="BackgroundImageFix" result="effect1_dropShadow_28028_231"/>
<feBlend mode="normal" in="SourceGraphic" in2="effect1_dropShadow_28028_231" result="shape"/>
</filter>
</defs>
</svg>
